<mxfile host="Electron" modified="2024-02-17T23:33:52.886Z" agent="Mozilla/5.0 (X11; Linux x86_64) AppleWebKit/537.36 (KHTML, like Gecko) draw.io/23.1.5 Chrome/120.0.6099.109 Electron/28.1.0 Safari/537.36" etag="f25ryqUFKC8l3zgmZg6U" version="23.1.5" type="device">
  <diagram name="Page-1" id="I9qHYXw20BZHlFzizIdc">
    <mxGraphModel dx="649" dy="401" grid="1" gridSize="10" guides="1" tooltips="1" connect="1" arrows="1" fold="1" page="1" pageScale="1" pageWidth="850" pageHeight="1100" math="0" shadow="0">
      <root>
        <mxCell id="0" />
        <mxCell id="1" parent="0" />
        <mxCell id="7n1U8HdBAdJ0gv718b80-84" value="" style="rounded=0;whiteSpace=wrap;html=1;fillColor=none;dashed=1;" parent="1" vertex="1">
          <mxGeometry x="150" y="200" width="220" height="250" as="geometry" />
        </mxCell>
        <mxCell id="7n1U8HdBAdJ0gv718b80-85" value="" style="rounded=0;whiteSpace=wrap;html=1;fillColor=none;dashed=1;" parent="1" vertex="1">
          <mxGeometry x="370" y="200" width="220" height="250" as="geometry" />
        </mxCell>
        <mxCell id="7n1U8HdBAdJ0gv718b80-5" value="19" style="ellipse;whiteSpace=wrap;html=1;aspect=fixed;fontFamily=Times New Roman;fontSize=12;strokeWidth=2;" parent="1" vertex="1">
          <mxGeometry x="330" y="250" width="20" height="20" as="geometry" />
        </mxCell>
        <mxCell id="7n1U8HdBAdJ0gv718b80-6" value="22" style="ellipse;whiteSpace=wrap;html=1;aspect=fixed;fontFamily=Times New Roman;fontSize=12;strokeWidth=2;" parent="1" vertex="1">
          <mxGeometry x="330" y="330" width="20" height="20" as="geometry" />
        </mxCell>
        <mxCell id="7n1U8HdBAdJ0gv718b80-7" value="32" style="ellipse;whiteSpace=wrap;html=1;aspect=fixed;fillColor=#008a00;fontColor=#ffffff;strokeColor=#005700;fontFamily=Times New Roman;fontSize=12;strokeWidth=2;" parent="1" vertex="1">
          <mxGeometry x="330" y="410" width="20" height="20" as="geometry" />
        </mxCell>
        <mxCell id="7n1U8HdBAdJ0gv718b80-9" value="10" style="ellipse;whiteSpace=wrap;html=1;aspect=fixed;fontFamily=Times New Roman;fontSize=12;strokeWidth=2;" parent="1" vertex="1">
          <mxGeometry x="250" y="250" width="20" height="20" as="geometry" />
        </mxCell>
        <mxCell id="7n1U8HdBAdJ0gv718b80-10" value="15" style="ellipse;whiteSpace=wrap;html=1;aspect=fixed;fontFamily=Times New Roman;fontSize=12;strokeWidth=2;" parent="1" vertex="1">
          <mxGeometry x="250" y="330" width="20" height="20" as="geometry" />
        </mxCell>
        <mxCell id="7n1U8HdBAdJ0gv718b80-11" value="24" style="ellipse;whiteSpace=wrap;html=1;aspect=fixed;fontFamily=Times New Roman;fontSize=12;strokeWidth=2;" parent="1" vertex="1">
          <mxGeometry x="250" y="410" width="20" height="20" as="geometry" />
        </mxCell>
        <mxCell id="7n1U8HdBAdJ0gv718b80-13" value="0" style="ellipse;whiteSpace=wrap;html=1;aspect=fixed;fillColor=#0050ef;fontColor=#ffffff;strokeColor=#001DBC;fontFamily=Times New Roman;fontSize=12;strokeWidth=2;" parent="1" vertex="1">
          <mxGeometry x="170" y="250" width="20" height="20" as="geometry" />
        </mxCell>
        <mxCell id="7n1U8HdBAdJ0gv718b80-14" value="8" style="ellipse;whiteSpace=wrap;html=1;aspect=fixed;fontFamily=Times New Roman;fontSize=12;strokeWidth=2;" parent="1" vertex="1">
          <mxGeometry x="170" y="330" width="20" height="20" as="geometry" />
        </mxCell>
        <mxCell id="7n1U8HdBAdJ0gv718b80-15" value="20" style="ellipse;whiteSpace=wrap;html=1;aspect=fixed;fontFamily=Times New Roman;fontSize=12;strokeWidth=2;" parent="1" vertex="1">
          <mxGeometry x="170" y="410" width="20" height="20" as="geometry" />
        </mxCell>
        <mxCell id="7n1U8HdBAdJ0gv718b80-17" value="" style="endArrow=classic;html=1;rounded=0;exitX=0.5;exitY=1;exitDx=0;exitDy=0;fontFamily=Times New Roman;fontSize=12;strokeWidth=2;" parent="1" source="7n1U8HdBAdJ0gv718b80-13" target="7n1U8HdBAdJ0gv718b80-14" edge="1">
          <mxGeometry width="50" height="50" relative="1" as="geometry">
            <mxPoint x="400" y="390" as="sourcePoint" />
            <mxPoint x="450" y="340" as="targetPoint" />
          </mxGeometry>
        </mxCell>
        <mxCell id="7n1U8HdBAdJ0gv718b80-33" value="8" style="edgeLabel;html=1;align=center;verticalAlign=middle;resizable=0;points=[];fontFamily=Times New Roman;fontSize=12;labelBackgroundColor=none;" parent="7n1U8HdBAdJ0gv718b80-17" vertex="1" connectable="0">
          <mxGeometry x="-0.1603" y="-2" relative="1" as="geometry">
            <mxPoint x="12" y="5" as="offset" />
          </mxGeometry>
        </mxCell>
        <mxCell id="7n1U8HdBAdJ0gv718b80-18" value="" style="endArrow=classic;html=1;rounded=0;exitX=1;exitY=0.5;exitDx=0;exitDy=0;entryX=0;entryY=0.5;entryDx=0;entryDy=0;fontFamily=Times New Roman;fontSize=12;strokeColor=#FF0000;strokeWidth=2;" parent="1" source="7n1U8HdBAdJ0gv718b80-13" target="7n1U8HdBAdJ0gv718b80-9" edge="1">
          <mxGeometry width="50" height="50" relative="1" as="geometry">
            <mxPoint x="190" y="280" as="sourcePoint" />
            <mxPoint x="190" y="340" as="targetPoint" />
          </mxGeometry>
        </mxCell>
        <mxCell id="7n1U8HdBAdJ0gv718b80-32" value="10" style="edgeLabel;html=1;align=center;verticalAlign=middle;resizable=0;points=[];fontFamily=Times New Roman;fontSize=12;labelBackgroundColor=none;" parent="7n1U8HdBAdJ0gv718b80-18" vertex="1" connectable="0">
          <mxGeometry x="-0.0619" y="1" relative="1" as="geometry">
            <mxPoint x="2" y="-9" as="offset" />
          </mxGeometry>
        </mxCell>
        <mxCell id="7n1U8HdBAdJ0gv718b80-19" value="" style="endArrow=classic;html=1;rounded=0;exitX=1;exitY=0.5;exitDx=0;exitDy=0;entryX=0;entryY=0.5;entryDx=0;entryDy=0;dashed=1;fontFamily=Times New Roman;fontSize=12;strokeWidth=2;" parent="1" source="7n1U8HdBAdJ0gv718b80-14" target="7n1U8HdBAdJ0gv718b80-10" edge="1">
          <mxGeometry width="50" height="50" relative="1" as="geometry">
            <mxPoint x="200" y="270" as="sourcePoint" />
            <mxPoint x="260" y="270" as="targetPoint" />
          </mxGeometry>
        </mxCell>
        <mxCell id="7n1U8HdBAdJ0gv718b80-34" value="11" style="edgeLabel;html=1;align=center;verticalAlign=middle;resizable=0;points=[];fontFamily=Times New Roman;fontSize=12;labelBackgroundColor=none;" parent="7n1U8HdBAdJ0gv718b80-19" vertex="1" connectable="0">
          <mxGeometry x="0.0333" y="-2" relative="1" as="geometry">
            <mxPoint x="-1" y="-12" as="offset" />
          </mxGeometry>
        </mxCell>
        <mxCell id="7n1U8HdBAdJ0gv718b80-20" value="" style="endArrow=classic;html=1;rounded=0;exitX=0.5;exitY=1;exitDx=0;exitDy=0;entryX=0.5;entryY=0;entryDx=0;entryDy=0;fontFamily=Times New Roman;fontSize=12;strokeColor=#FF0000;strokeWidth=2;" parent="1" source="7n1U8HdBAdJ0gv718b80-9" target="7n1U8HdBAdJ0gv718b80-10" edge="1">
          <mxGeometry width="50" height="50" relative="1" as="geometry">
            <mxPoint x="210" y="280" as="sourcePoint" />
            <mxPoint x="270" y="280" as="targetPoint" />
          </mxGeometry>
        </mxCell>
        <mxCell id="7n1U8HdBAdJ0gv718b80-36" value="5" style="edgeLabel;html=1;align=center;verticalAlign=middle;resizable=0;points=[];fontFamily=Times New Roman;fontSize=12;labelBackgroundColor=none;" parent="7n1U8HdBAdJ0gv718b80-20" vertex="1" connectable="0">
          <mxGeometry x="-0.3349" y="-2" relative="1" as="geometry">
            <mxPoint x="12" y="10" as="offset" />
          </mxGeometry>
        </mxCell>
        <mxCell id="7n1U8HdBAdJ0gv718b80-21" value="" style="endArrow=classic;html=1;rounded=0;exitX=0.5;exitY=1;exitDx=0;exitDy=0;entryX=0.5;entryY=0;entryDx=0;entryDy=0;fontFamily=Times New Roman;fontSize=12;strokeWidth=2;" parent="1" source="7n1U8HdBAdJ0gv718b80-14" target="7n1U8HdBAdJ0gv718b80-15" edge="1">
          <mxGeometry width="50" height="50" relative="1" as="geometry">
            <mxPoint x="200" y="350" as="sourcePoint" />
            <mxPoint x="260" y="350" as="targetPoint" />
          </mxGeometry>
        </mxCell>
        <mxCell id="7n1U8HdBAdJ0gv718b80-40" value="12" style="edgeLabel;html=1;align=center;verticalAlign=middle;resizable=0;points=[];fontFamily=Times New Roman;fontSize=12;labelBackgroundColor=none;" parent="7n1U8HdBAdJ0gv718b80-21" vertex="1" connectable="0">
          <mxGeometry x="-0.1444" relative="1" as="geometry">
            <mxPoint x="10" y="4" as="offset" />
          </mxGeometry>
        </mxCell>
        <mxCell id="7n1U8HdBAdJ0gv718b80-23" value="" style="endArrow=classic;html=1;rounded=0;exitX=1;exitY=0.5;exitDx=0;exitDy=0;entryX=0;entryY=0.5;entryDx=0;entryDy=0;fontFamily=Times New Roman;fontSize=12;strokeWidth=2;" parent="1" source="7n1U8HdBAdJ0gv718b80-9" target="7n1U8HdBAdJ0gv718b80-5" edge="1">
          <mxGeometry width="50" height="50" relative="1" as="geometry">
            <mxPoint x="200" y="270" as="sourcePoint" />
            <mxPoint x="260" y="270" as="targetPoint" />
          </mxGeometry>
        </mxCell>
        <mxCell id="7n1U8HdBAdJ0gv718b80-35" value="9" style="edgeLabel;html=1;align=center;verticalAlign=middle;resizable=0;points=[];fontFamily=Times New Roman;fontSize=12;labelBackgroundColor=none;" parent="7n1U8HdBAdJ0gv718b80-23" vertex="1" connectable="0">
          <mxGeometry x="-0.1095" y="-1" relative="1" as="geometry">
            <mxPoint x="3" y="-11" as="offset" />
          </mxGeometry>
        </mxCell>
        <mxCell id="7n1U8HdBAdJ0gv718b80-25" value="" style="endArrow=classic;html=1;rounded=0;exitX=0.5;exitY=1;exitDx=0;exitDy=0;entryX=0.5;entryY=0;entryDx=0;entryDy=0;dashed=1;fontFamily=Times New Roman;fontSize=12;strokeWidth=2;" parent="1" source="7n1U8HdBAdJ0gv718b80-5" target="7n1U8HdBAdJ0gv718b80-6" edge="1">
          <mxGeometry width="50" height="50" relative="1" as="geometry">
            <mxPoint x="280" y="270" as="sourcePoint" />
            <mxPoint x="340" y="270" as="targetPoint" />
          </mxGeometry>
        </mxCell>
        <mxCell id="7n1U8HdBAdJ0gv718b80-43" value="9" style="edgeLabel;html=1;align=center;verticalAlign=middle;resizable=0;points=[];fontFamily=Times New Roman;fontSize=12;labelBackgroundColor=none;" parent="7n1U8HdBAdJ0gv718b80-25" vertex="1" connectable="0">
          <mxGeometry x="-0.0968" y="1" relative="1" as="geometry">
            <mxPoint x="9" y="3" as="offset" />
          </mxGeometry>
        </mxCell>
        <mxCell id="7n1U8HdBAdJ0gv718b80-26" value="" style="endArrow=classic;html=1;rounded=0;exitX=1;exitY=0.5;exitDx=0;exitDy=0;entryX=0;entryY=0.5;entryDx=0;entryDy=0;fontFamily=Times New Roman;fontSize=12;strokeColor=#FF0000;strokeWidth=2;" parent="1" source="7n1U8HdBAdJ0gv718b80-10" target="7n1U8HdBAdJ0gv718b80-6" edge="1">
          <mxGeometry width="50" height="50" relative="1" as="geometry">
            <mxPoint x="290" y="280" as="sourcePoint" />
            <mxPoint x="350" y="280" as="targetPoint" />
          </mxGeometry>
        </mxCell>
        <mxCell id="7n1U8HdBAdJ0gv718b80-37" value="7" style="edgeLabel;html=1;align=center;verticalAlign=middle;resizable=0;points=[];fontFamily=Times New Roman;fontSize=12;labelBackgroundColor=none;" parent="7n1U8HdBAdJ0gv718b80-26" vertex="1" connectable="0">
          <mxGeometry x="-0.1571" relative="1" as="geometry">
            <mxPoint x="5" y="-10" as="offset" />
          </mxGeometry>
        </mxCell>
        <mxCell id="7n1U8HdBAdJ0gv718b80-27" value="" style="endArrow=classic;html=1;rounded=0;exitX=1;exitY=0.5;exitDx=0;exitDy=0;entryX=0;entryY=0.5;entryDx=0;entryDy=0;fontFamily=Times New Roman;fontSize=12;strokeWidth=2;" parent="1" edge="1">
          <mxGeometry width="50" height="50" relative="1" as="geometry">
            <mxPoint x="190" y="419.76" as="sourcePoint" />
            <mxPoint x="250" y="419.76" as="targetPoint" />
          </mxGeometry>
        </mxCell>
        <mxCell id="7n1U8HdBAdJ0gv718b80-39" value="4" style="edgeLabel;html=1;align=center;verticalAlign=middle;resizable=0;points=[];fontFamily=Times New Roman;fontSize=12;labelBackgroundColor=none;" parent="7n1U8HdBAdJ0gv718b80-27" vertex="1" connectable="0">
          <mxGeometry x="-0.2206" y="1" relative="1" as="geometry">
            <mxPoint x="7" y="-9" as="offset" />
          </mxGeometry>
        </mxCell>
        <mxCell id="7n1U8HdBAdJ0gv718b80-28" value="" style="endArrow=classic;html=1;rounded=0;exitX=1;exitY=0.5;exitDx=0;exitDy=0;entryX=0;entryY=0.5;entryDx=0;entryDy=0;dashed=1;fontFamily=Times New Roman;fontSize=12;strokeWidth=2;" parent="1" edge="1">
          <mxGeometry width="50" height="50" relative="1" as="geometry">
            <mxPoint x="270" y="419.76" as="sourcePoint" />
            <mxPoint x="330" y="419.76" as="targetPoint" />
          </mxGeometry>
        </mxCell>
        <mxCell id="7n1U8HdBAdJ0gv718b80-41" value="13" style="edgeLabel;html=1;align=center;verticalAlign=middle;resizable=0;points=[];fontFamily=Times New Roman;fontSize=12;labelBackgroundColor=none;" parent="7n1U8HdBAdJ0gv718b80-28" vertex="1" connectable="0">
          <mxGeometry x="-0.1095" y="-1" relative="1" as="geometry">
            <mxPoint x="3" y="-11" as="offset" />
          </mxGeometry>
        </mxCell>
        <mxCell id="7n1U8HdBAdJ0gv718b80-29" value="" style="endArrow=classic;html=1;rounded=0;exitX=0.5;exitY=1;exitDx=0;exitDy=0;entryX=0.5;entryY=0;entryDx=0;entryDy=0;dashed=1;fontFamily=Times New Roman;fontSize=12;strokeWidth=2;" parent="1" edge="1">
          <mxGeometry width="50" height="50" relative="1" as="geometry">
            <mxPoint x="259.76" y="350" as="sourcePoint" />
            <mxPoint x="259.76" y="410" as="targetPoint" />
          </mxGeometry>
        </mxCell>
        <mxCell id="7n1U8HdBAdJ0gv718b80-44" value="11" style="edgeLabel;html=1;align=center;verticalAlign=middle;resizable=0;points=[];fontFamily=Times New Roman;fontSize=12;labelBackgroundColor=none;" parent="7n1U8HdBAdJ0gv718b80-29" vertex="1" connectable="0">
          <mxGeometry x="-0.0175" y="-2" relative="1" as="geometry">
            <mxPoint x="12" as="offset" />
          </mxGeometry>
        </mxCell>
        <mxCell id="7n1U8HdBAdJ0gv718b80-30" value="" style="endArrow=classic;html=1;rounded=0;exitX=0.5;exitY=1;exitDx=0;exitDy=0;entryX=0.5;entryY=0;entryDx=0;entryDy=0;fontFamily=Times New Roman;fontSize=12;strokeColor=#FF0000;strokeWidth=2;" parent="1" edge="1">
          <mxGeometry width="50" height="50" relative="1" as="geometry">
            <mxPoint x="339.76" y="350" as="sourcePoint" />
            <mxPoint x="339.76" y="410" as="targetPoint" />
          </mxGeometry>
        </mxCell>
        <mxCell id="7n1U8HdBAdJ0gv718b80-42" value="10" style="edgeLabel;html=1;align=center;verticalAlign=middle;resizable=0;points=[];fontFamily=Times New Roman;fontSize=12;labelBackgroundColor=none;" parent="7n1U8HdBAdJ0gv718b80-30" vertex="1" connectable="0">
          <mxGeometry x="-0.0492" y="-1" relative="1" as="geometry">
            <mxPoint x="11" as="offset" />
          </mxGeometry>
        </mxCell>
        <mxCell id="7n1U8HdBAdJ0gv718b80-47" value="19" style="ellipse;whiteSpace=wrap;html=1;aspect=fixed;fontFamily=Times New Roman;fontSize=12;strokeWidth=2;" parent="1" vertex="1">
          <mxGeometry x="550" y="250" width="20" height="20" as="geometry" />
        </mxCell>
        <mxCell id="7n1U8HdBAdJ0gv718b80-48" value="10" style="ellipse;whiteSpace=wrap;html=1;aspect=fixed;fontFamily=Times New Roman;fontSize=12;strokeWidth=2;" parent="1" vertex="1">
          <mxGeometry x="550" y="330" width="20" height="20" as="geometry" />
        </mxCell>
        <mxCell id="7n1U8HdBAdJ0gv718b80-49" value="0" style="ellipse;whiteSpace=wrap;html=1;aspect=fixed;fillColor=#008a00;fontColor=#ffffff;strokeColor=#005700;fontFamily=Times New Roman;fontSize=12;strokeWidth=2;" parent="1" vertex="1">
          <mxGeometry x="550" y="410" width="20" height="20" as="geometry" />
        </mxCell>
        <mxCell id="7n1U8HdBAdJ0gv718b80-50" value="22" style="ellipse;whiteSpace=wrap;html=1;aspect=fixed;fontFamily=Times New Roman;fontSize=12;strokeWidth=2;" parent="1" vertex="1">
          <mxGeometry x="470" y="250" width="20" height="20" as="geometry" />
        </mxCell>
        <mxCell id="7n1U8HdBAdJ0gv718b80-51" value="17" style="ellipse;whiteSpace=wrap;html=1;aspect=fixed;fontFamily=Times New Roman;fontSize=12;strokeWidth=2;" parent="1" vertex="1">
          <mxGeometry x="470" y="330" width="20" height="20" as="geometry" />
        </mxCell>
        <mxCell id="7n1U8HdBAdJ0gv718b80-52" value="13" style="ellipse;whiteSpace=wrap;html=1;aspect=fixed;fontFamily=Times New Roman;fontSize=12;strokeWidth=2;" parent="1" vertex="1">
          <mxGeometry x="470" y="410" width="20" height="20" as="geometry" />
        </mxCell>
        <mxCell id="7n1U8HdBAdJ0gv718b80-53" value="32" style="ellipse;whiteSpace=wrap;html=1;aspect=fixed;fillColor=#0050ef;fontColor=#ffffff;strokeColor=#001DBC;fontFamily=Times New Roman;fontSize=12;strokeWidth=2;" parent="1" vertex="1">
          <mxGeometry x="390" y="250" width="20" height="20" as="geometry" />
        </mxCell>
        <mxCell id="7n1U8HdBAdJ0gv718b80-54" value="28" style="ellipse;whiteSpace=wrap;html=1;aspect=fixed;fontFamily=Times New Roman;fontSize=12;strokeWidth=2;" parent="1" vertex="1">
          <mxGeometry x="390" y="330" width="20" height="20" as="geometry" />
        </mxCell>
        <mxCell id="7n1U8HdBAdJ0gv718b80-55" value="17" style="ellipse;whiteSpace=wrap;html=1;aspect=fixed;fontFamily=Times New Roman;fontSize=12;strokeWidth=2;" parent="1" vertex="1">
          <mxGeometry x="390" y="410" width="20" height="20" as="geometry" />
        </mxCell>
        <mxCell id="7n1U8HdBAdJ0gv718b80-56" value="" style="endArrow=classic;html=1;rounded=0;exitX=0.5;exitY=1;exitDx=0;exitDy=0;fontFamily=Times New Roman;fontSize=12;strokeWidth=2;strokeColor=#000000;dashed=1;" parent="1" source="7n1U8HdBAdJ0gv718b80-53" target="7n1U8HdBAdJ0gv718b80-54" edge="1">
          <mxGeometry width="50" height="50" relative="1" as="geometry">
            <mxPoint x="620" y="390" as="sourcePoint" />
            <mxPoint x="670" y="340" as="targetPoint" />
          </mxGeometry>
        </mxCell>
        <mxCell id="7n1U8HdBAdJ0gv718b80-57" value="8" style="edgeLabel;html=1;align=center;verticalAlign=middle;resizable=0;points=[];fontFamily=Times New Roman;fontSize=12;labelBackgroundColor=none;" parent="7n1U8HdBAdJ0gv718b80-56" vertex="1" connectable="0">
          <mxGeometry x="-0.1603" y="-2" relative="1" as="geometry">
            <mxPoint x="12" y="5" as="offset" />
          </mxGeometry>
        </mxCell>
        <mxCell id="7n1U8HdBAdJ0gv718b80-58" value="" style="endArrow=classic;html=1;rounded=0;exitX=1;exitY=0.5;exitDx=0;exitDy=0;entryX=0;entryY=0.5;entryDx=0;entryDy=0;fontFamily=Times New Roman;fontSize=12;strokeColor=#FF0000;strokeWidth=2;" parent="1" source="7n1U8HdBAdJ0gv718b80-53" target="7n1U8HdBAdJ0gv718b80-50" edge="1">
          <mxGeometry width="50" height="50" relative="1" as="geometry">
            <mxPoint x="410" y="280" as="sourcePoint" />
            <mxPoint x="410" y="340" as="targetPoint" />
          </mxGeometry>
        </mxCell>
        <mxCell id="7n1U8HdBAdJ0gv718b80-59" value="10" style="edgeLabel;html=1;align=center;verticalAlign=middle;resizable=0;points=[];fontFamily=Times New Roman;fontSize=12;labelBackgroundColor=none;" parent="7n1U8HdBAdJ0gv718b80-58" vertex="1" connectable="0">
          <mxGeometry x="-0.0619" y="1" relative="1" as="geometry">
            <mxPoint x="2" y="-9" as="offset" />
          </mxGeometry>
        </mxCell>
        <mxCell id="7n1U8HdBAdJ0gv718b80-60" value="" style="endArrow=classic;html=1;rounded=0;exitX=1;exitY=0.5;exitDx=0;exitDy=0;entryX=0;entryY=0.5;entryDx=0;entryDy=0;fontFamily=Times New Roman;fontSize=12;strokeWidth=2;strokeColor=#000000;" parent="1" source="7n1U8HdBAdJ0gv718b80-54" target="7n1U8HdBAdJ0gv718b80-51" edge="1">
          <mxGeometry width="50" height="50" relative="1" as="geometry">
            <mxPoint x="420" y="270" as="sourcePoint" />
            <mxPoint x="480" y="270" as="targetPoint" />
          </mxGeometry>
        </mxCell>
        <mxCell id="7n1U8HdBAdJ0gv718b80-61" value="11" style="edgeLabel;html=1;align=center;verticalAlign=middle;resizable=0;points=[];fontFamily=Times New Roman;fontSize=12;labelBackgroundColor=none;" parent="7n1U8HdBAdJ0gv718b80-60" vertex="1" connectable="0">
          <mxGeometry x="0.0333" y="-2" relative="1" as="geometry">
            <mxPoint x="-1" y="-12" as="offset" />
          </mxGeometry>
        </mxCell>
        <mxCell id="7n1U8HdBAdJ0gv718b80-62" value="" style="endArrow=classic;html=1;rounded=0;exitX=0.5;exitY=1;exitDx=0;exitDy=0;entryX=0.5;entryY=0;entryDx=0;entryDy=0;fontFamily=Times New Roman;fontSize=12;strokeColor=#FF0000;strokeWidth=2;" parent="1" source="7n1U8HdBAdJ0gv718b80-50" target="7n1U8HdBAdJ0gv718b80-51" edge="1">
          <mxGeometry width="50" height="50" relative="1" as="geometry">
            <mxPoint x="430" y="280" as="sourcePoint" />
            <mxPoint x="490" y="280" as="targetPoint" />
          </mxGeometry>
        </mxCell>
        <mxCell id="7n1U8HdBAdJ0gv718b80-63" value="5" style="edgeLabel;html=1;align=center;verticalAlign=middle;resizable=0;points=[];fontFamily=Times New Roman;fontSize=12;labelBackgroundColor=none;" parent="7n1U8HdBAdJ0gv718b80-62" vertex="1" connectable="0">
          <mxGeometry x="-0.3349" y="-2" relative="1" as="geometry">
            <mxPoint x="12" y="10" as="offset" />
          </mxGeometry>
        </mxCell>
        <mxCell id="7n1U8HdBAdJ0gv718b80-64" value="" style="endArrow=classic;html=1;rounded=0;exitX=0.5;exitY=1;exitDx=0;exitDy=0;entryX=0.5;entryY=0;entryDx=0;entryDy=0;fontFamily=Times New Roman;fontSize=12;strokeWidth=2;strokeColor=#000000;dashed=1;" parent="1" source="7n1U8HdBAdJ0gv718b80-54" target="7n1U8HdBAdJ0gv718b80-55" edge="1">
          <mxGeometry width="50" height="50" relative="1" as="geometry">
            <mxPoint x="420" y="350" as="sourcePoint" />
            <mxPoint x="480" y="350" as="targetPoint" />
          </mxGeometry>
        </mxCell>
        <mxCell id="7n1U8HdBAdJ0gv718b80-65" value="12" style="edgeLabel;html=1;align=center;verticalAlign=middle;resizable=0;points=[];fontFamily=Times New Roman;fontSize=12;labelBackgroundColor=none;" parent="7n1U8HdBAdJ0gv718b80-64" vertex="1" connectable="0">
          <mxGeometry x="-0.1444" relative="1" as="geometry">
            <mxPoint x="10" y="4" as="offset" />
          </mxGeometry>
        </mxCell>
        <mxCell id="7n1U8HdBAdJ0gv718b80-66" value="" style="endArrow=classic;html=1;rounded=0;exitX=1;exitY=0.5;exitDx=0;exitDy=0;entryX=0;entryY=0.5;entryDx=0;entryDy=0;fontFamily=Times New Roman;fontSize=12;strokeWidth=2;strokeColor=#000000;dashed=1;" parent="1" source="7n1U8HdBAdJ0gv718b80-50" target="7n1U8HdBAdJ0gv718b80-47" edge="1">
          <mxGeometry width="50" height="50" relative="1" as="geometry">
            <mxPoint x="420" y="270" as="sourcePoint" />
            <mxPoint x="480" y="270" as="targetPoint" />
          </mxGeometry>
        </mxCell>
        <mxCell id="7n1U8HdBAdJ0gv718b80-67" value="9" style="edgeLabel;html=1;align=center;verticalAlign=middle;resizable=0;points=[];fontFamily=Times New Roman;fontSize=12;labelBackgroundColor=none;" parent="7n1U8HdBAdJ0gv718b80-66" vertex="1" connectable="0">
          <mxGeometry x="-0.1095" y="-1" relative="1" as="geometry">
            <mxPoint x="3" y="-11" as="offset" />
          </mxGeometry>
        </mxCell>
        <mxCell id="7n1U8HdBAdJ0gv718b80-68" value="" style="endArrow=classic;html=1;rounded=0;exitX=0.5;exitY=1;exitDx=0;exitDy=0;entryX=0.5;entryY=0;entryDx=0;entryDy=0;fontFamily=Times New Roman;fontSize=12;strokeWidth=2;strokeColor=#000000;" parent="1" source="7n1U8HdBAdJ0gv718b80-47" target="7n1U8HdBAdJ0gv718b80-48" edge="1">
          <mxGeometry width="50" height="50" relative="1" as="geometry">
            <mxPoint x="500" y="270" as="sourcePoint" />
            <mxPoint x="560" y="270" as="targetPoint" />
          </mxGeometry>
        </mxCell>
        <mxCell id="7n1U8HdBAdJ0gv718b80-69" value="9" style="edgeLabel;html=1;align=center;verticalAlign=middle;resizable=0;points=[];fontFamily=Times New Roman;fontSize=12;labelBackgroundColor=none;" parent="7n1U8HdBAdJ0gv718b80-68" vertex="1" connectable="0">
          <mxGeometry x="-0.0968" y="1" relative="1" as="geometry">
            <mxPoint x="9" y="3" as="offset" />
          </mxGeometry>
        </mxCell>
        <mxCell id="7n1U8HdBAdJ0gv718b80-70" value="" style="endArrow=classic;html=1;rounded=0;exitX=1;exitY=0.5;exitDx=0;exitDy=0;entryX=0;entryY=0.5;entryDx=0;entryDy=0;fontFamily=Times New Roman;fontSize=12;strokeColor=#FF0000;strokeWidth=2;" parent="1" source="7n1U8HdBAdJ0gv718b80-51" target="7n1U8HdBAdJ0gv718b80-48" edge="1">
          <mxGeometry width="50" height="50" relative="1" as="geometry">
            <mxPoint x="510" y="280" as="sourcePoint" />
            <mxPoint x="570" y="280" as="targetPoint" />
          </mxGeometry>
        </mxCell>
        <mxCell id="7n1U8HdBAdJ0gv718b80-71" value="7" style="edgeLabel;html=1;align=center;verticalAlign=middle;resizable=0;points=[];fontFamily=Times New Roman;fontSize=12;labelBackgroundColor=none;" parent="7n1U8HdBAdJ0gv718b80-70" vertex="1" connectable="0">
          <mxGeometry x="-0.1571" relative="1" as="geometry">
            <mxPoint x="5" y="-10" as="offset" />
          </mxGeometry>
        </mxCell>
        <mxCell id="7n1U8HdBAdJ0gv718b80-72" value="" style="endArrow=classic;html=1;rounded=0;exitX=1;exitY=0.5;exitDx=0;exitDy=0;entryX=0;entryY=0.5;entryDx=0;entryDy=0;fontFamily=Times New Roman;fontSize=12;strokeWidth=2;strokeColor=#000000;" parent="1" edge="1">
          <mxGeometry width="50" height="50" relative="1" as="geometry">
            <mxPoint x="410" y="419.76" as="sourcePoint" />
            <mxPoint x="470" y="419.76" as="targetPoint" />
          </mxGeometry>
        </mxCell>
        <mxCell id="7n1U8HdBAdJ0gv718b80-73" value="4" style="edgeLabel;html=1;align=center;verticalAlign=middle;resizable=0;points=[];fontFamily=Times New Roman;fontSize=12;labelBackgroundColor=none;" parent="7n1U8HdBAdJ0gv718b80-72" vertex="1" connectable="0">
          <mxGeometry x="-0.2206" y="1" relative="1" as="geometry">
            <mxPoint x="7" y="-9" as="offset" />
          </mxGeometry>
        </mxCell>
        <mxCell id="7n1U8HdBAdJ0gv718b80-74" value="" style="endArrow=classic;html=1;rounded=0;exitX=1;exitY=0.5;exitDx=0;exitDy=0;entryX=0;entryY=0.5;entryDx=0;entryDy=0;fontFamily=Times New Roman;fontSize=12;strokeWidth=2;strokeColor=#000000;" parent="1" edge="1">
          <mxGeometry width="50" height="50" relative="1" as="geometry">
            <mxPoint x="490" y="419.76" as="sourcePoint" />
            <mxPoint x="550" y="419.76" as="targetPoint" />
          </mxGeometry>
        </mxCell>
        <mxCell id="7n1U8HdBAdJ0gv718b80-75" value="13" style="edgeLabel;html=1;align=center;verticalAlign=middle;resizable=0;points=[];fontFamily=Times New Roman;fontSize=12;labelBackgroundColor=none;" parent="7n1U8HdBAdJ0gv718b80-74" vertex="1" connectable="0">
          <mxGeometry x="-0.1095" y="-1" relative="1" as="geometry">
            <mxPoint x="3" y="-11" as="offset" />
          </mxGeometry>
        </mxCell>
        <mxCell id="7n1U8HdBAdJ0gv718b80-76" value="" style="endArrow=classic;html=1;rounded=0;exitX=0.5;exitY=1;exitDx=0;exitDy=0;entryX=0.5;entryY=0;entryDx=0;entryDy=0;fontFamily=Times New Roman;fontSize=12;strokeWidth=2;strokeColor=#000000;dashed=1;" parent="1" edge="1">
          <mxGeometry width="50" height="50" relative="1" as="geometry">
            <mxPoint x="479.76" y="350" as="sourcePoint" />
            <mxPoint x="479.76" y="410" as="targetPoint" />
          </mxGeometry>
        </mxCell>
        <mxCell id="7n1U8HdBAdJ0gv718b80-77" value="11" style="edgeLabel;html=1;align=center;verticalAlign=middle;resizable=0;points=[];fontFamily=Times New Roman;fontSize=12;labelBackgroundColor=none;" parent="7n1U8HdBAdJ0gv718b80-76" vertex="1" connectable="0">
          <mxGeometry x="-0.0175" y="-2" relative="1" as="geometry">
            <mxPoint x="12" as="offset" />
          </mxGeometry>
        </mxCell>
        <mxCell id="7n1U8HdBAdJ0gv718b80-78" value="" style="endArrow=classic;html=1;rounded=0;exitX=0.5;exitY=1;exitDx=0;exitDy=0;entryX=0.5;entryY=0;entryDx=0;entryDy=0;fontFamily=Times New Roman;fontSize=12;strokeColor=#FF0000;strokeWidth=2;" parent="1" edge="1">
          <mxGeometry width="50" height="50" relative="1" as="geometry">
            <mxPoint x="559.76" y="350" as="sourcePoint" />
            <mxPoint x="559.76" y="410" as="targetPoint" />
          </mxGeometry>
        </mxCell>
        <mxCell id="7n1U8HdBAdJ0gv718b80-79" value="10" style="edgeLabel;html=1;align=center;verticalAlign=middle;resizable=0;points=[];fontFamily=Times New Roman;fontSize=12;labelBackgroundColor=none;" parent="7n1U8HdBAdJ0gv718b80-78" vertex="1" connectable="0">
          <mxGeometry x="-0.0492" y="-1" relative="1" as="geometry">
            <mxPoint x="11" as="offset" />
          </mxGeometry>
        </mxCell>
        <mxCell id="7n1U8HdBAdJ0gv718b80-82" value="Forward Integration" style="text;html=1;align=center;verticalAlign=middle;resizable=0;points=[];autosize=1;strokeColor=none;fillColor=none;fontFamily=Times New Roman;fontSize=14;" parent="1" vertex="1">
          <mxGeometry x="190" y="210" width="140" height="30" as="geometry" />
        </mxCell>
        <mxCell id="7n1U8HdBAdJ0gv718b80-83" value="Reverse Integration" style="text;html=1;align=center;verticalAlign=middle;resizable=0;points=[];autosize=1;strokeColor=none;fillColor=none;fontFamily=Times New Roman;fontSize=14;" parent="1" vertex="1">
          <mxGeometry x="415" y="210" width="130" height="30" as="geometry" />
        </mxCell>
      </root>
    </mxGraphModel>
  </diagram>
</mxfile>
